<svg xmlns="http://www.w3.org/2000/svg" viewBox="0 0 108.44 32.23"><defs><style>.cls-1{fill:#1a1a1a;}</style></defs><title>Asset 4</title><g id="Layer_2" data-name="Layer 2"><g id="Layer_1-2" data-name="Layer 1"><path class="cls-1" d="M40.68,18.74a1.06,1.06,0,0,1,.61.82,1.22,1.22,0,0,1-.29,1,.91.91,0,0,1-.67.4,1.47,1.47,0,0,1-.83-.16,5.68,5.68,0,0,0-1-.33,5,5,0,0,0-1.11-.12,5.26,5.26,0,0,0-1.92.33,4.06,4.06,0,0,0-1.45,1,4.27,4.27,0,0,0-.91,1.49,5.69,5.69,0,0,0-.31,1.9,5.87,5.87,0,0,0,.35,2.11,4.14,4.14,0,0,0,1,1.5,4,4,0,0,0,1.46.89,5.58,5.58,0,0,0,1.81.29,6.57,6.57,0,0,0,1.08-.1,3.89,3.89,0,0,0,1-.36,1.37,1.37,0,0,1,.83-.14,1.06,1.06,0,0,1,.69.42,1.22,1.22,0,0,1,.29,1,1.06,1.06,0,0,1-.61.77,6.14,6.14,0,0,1-1.07.43,7.43,7.43,0,0,1-1.11.26,7.11,7.11,0,0,1-1.14.09,8,8,0,0,1-2.72-.46,7,7,0,0,1-2.3-1.35,6.22,6.22,0,0,1-1.58-2.25,7.79,7.79,0,0,1-.58-3.12,7.33,7.33,0,0,1,.53-2.84A6.61,6.61,0,0,1,32.22,20a6.8,6.8,0,0,1,2.29-1.48A7.71,7.71,0,0,1,37.38,18a7.56,7.56,0,0,1,1.72.2A7.11,7.11,0,0,1,40.68,18.74Z"/><path class="cls-1" d="M51.85,21.15a1.16,1.16,0,0,1,1.2,1.22v8.44a1.18,1.18,0,0,1-.34.87,1.22,1.22,0,0,1-1.71,0,1.18,1.18,0,0,1-.34-.87v-1l.44.18a1.14,1.14,0,0,1-.28.62,3.81,3.81,0,0,1-.76.73,4.5,4.5,0,0,1-1.13.61,3.8,3.8,0,0,1-1.41.25A4.49,4.49,0,0,1,45,31.52a4.92,4.92,0,0,1-1.77-1.95,6.68,6.68,0,0,1,0-5.75,5,5,0,0,1,1.75-2,4.4,4.4,0,0,1,2.43-.71,4.67,4.67,0,0,1,1.58.26,5.08,5.08,0,0,1,1.25.66,4.2,4.2,0,0,1,.82.81,1.3,1.3,0,0,1,.29.69l-.72.26V22.37A1.21,1.21,0,0,1,51,21.5,1.14,1.14,0,0,1,51.85,21.15Zm-4,8.89a2.73,2.73,0,0,0,1.54-.44,3,3,0,0,0,1-1.2,4.11,4.11,0,0,0,0-3.41,3,3,0,0,0-1-1.2,2.73,2.73,0,0,0-1.54-.44,2.68,2.68,0,0,0-1.51.44,2.88,2.88,0,0,0-1,1.2,4.11,4.11,0,0,0,0,3.41,2.94,2.94,0,0,0,1,1.2A2.68,2.68,0,0,0,47.82,30Z"/><path class="cls-1" d="M56.84,32a1.1,1.1,0,0,1-.85-.35,1.18,1.18,0,0,1-.34-.87V22.57A1.19,1.19,0,0,1,56,21.7a1.22,1.22,0,0,1,1.71,0,1.19,1.19,0,0,1,.34.87v1.88l-.14-1.34a3.33,3.33,0,0,1,.57-.85,3.67,3.67,0,0,1,.79-.62,3.83,3.83,0,0,1,.94-.37,4.21,4.21,0,0,1,1-.12,1.53,1.53,0,0,1,1,.34,1,1,0,0,1,.41.8,1.17,1.17,0,0,1-.34.95,1.11,1.11,0,0,1-.73.29,1.67,1.67,0,0,1-.69-.14,1.75,1.75,0,0,0-1.44,0,2,2,0,0,0-.68.53,2.72,2.72,0,0,0-.5.89A3.85,3.85,0,0,0,58,26.08v4.73a1.18,1.18,0,0,1-.34.87A1.11,1.11,0,0,1,56.84,32Z"/><path class="cls-1" d="M72.51,17.26a1.14,1.14,0,0,1,.86.34,1.18,1.18,0,0,1,.34.88V30.81a1.18,1.18,0,0,1-.34.87,1.22,1.22,0,0,1-1.71,0,1.18,1.18,0,0,1-.34-.87v-1l.44.18a1.14,1.14,0,0,1-.28.62,3.81,3.81,0,0,1-.76.73,4.5,4.5,0,0,1-1.13.61,3.8,3.8,0,0,1-1.41.25,4.47,4.47,0,0,1-2.49-.71,4.92,4.92,0,0,1-1.77-1.95,6.68,6.68,0,0,1,0-5.75,5,5,0,0,1,1.75-2,4.4,4.4,0,0,1,2.43-.71,4.72,4.72,0,0,1,1.58.26,5.27,5.27,0,0,1,1.25.66,3.87,3.87,0,0,1,.81.81,1.22,1.22,0,0,1,.29.69l-.71.26V18.48a1.18,1.18,0,0,1,.34-.87A1.14,1.14,0,0,1,72.51,17.26ZM68.48,30A2.73,2.73,0,0,0,70,29.6a3,3,0,0,0,1-1.2,4.11,4.11,0,0,0,0-3.41,3,3,0,0,0-1-1.2,2.88,2.88,0,0,0-3.06,0,2.93,2.93,0,0,0-1,1.2,4.11,4.11,0,0,0,0,3.41,3,3,0,0,0,1,1.2A2.71,2.71,0,0,0,68.48,30Z"/><path class="cls-1" d="M86.56,26.7a5.69,5.69,0,0,1-.72,2.89,5.21,5.21,0,0,1-2,1.94,5.73,5.73,0,0,1-5.49,0,5.12,5.12,0,0,1-2-1.94,6.07,6.07,0,0,1,0-5.77,5.24,5.24,0,0,1,2-2,5.66,5.66,0,0,1,5.49,0,5.34,5.34,0,0,1,2,2A5.65,5.65,0,0,1,86.56,26.7Zm-2.39,0a3.63,3.63,0,0,0-.41-1.76,3,3,0,0,0-1.1-1.17,3,3,0,0,0-3,0,3,3,0,0,0-1.1,1.17,4,4,0,0,0,0,3.51,3,3,0,0,0,1.1,1.17,3,3,0,0,0,3,0,3,3,0,0,0,1.1-1.17A3.62,3.62,0,0,0,84.17,26.7Z"/><path class="cls-1" d="M87.94,30.38a1.17,1.17,0,0,1-.18-.72,1,1,0,0,1,.52-.76,1.1,1.1,0,0,1,.68-.17,1.13,1.13,0,0,1,.7.37,4.86,4.86,0,0,0,1.22.9,3.54,3.54,0,0,0,1.59.32l.66-.09a1.35,1.35,0,0,0,.63-.32,1,1,0,0,0,.27-.77.88.88,0,0,0-.3-.7,2.56,2.56,0,0,0-.79-.44c-.32-.12-.69-.23-1.09-.34s-.83-.25-1.26-.4a4.67,4.67,0,0,1-1.19-.57,2.71,2.71,0,0,1-.88-.93,2.78,2.78,0,0,1-.34-1.45,2.65,2.65,0,0,1,.56-1.7,3.79,3.79,0,0,1,1.45-1.08,4.72,4.72,0,0,1,1.86-.38,6,6,0,0,1,1.3.15,5.09,5.09,0,0,1,1.3.48,3.25,3.25,0,0,1,1,.87,1.52,1.52,0,0,1,.26.72.88.88,0,0,1-.38.76,1,1,0,0,1-.7.21,1,1,0,0,1-.66-.27,2.39,2.39,0,0,0-.91-.7A3.16,3.16,0,0,0,92,23.11a3,3,0,0,0-.64.07,1.3,1.3,0,0,0-.61.3.89.89,0,0,0-.26.73.94.94,0,0,0,.3.73,2.42,2.42,0,0,0,.8.44c.34.11.71.22,1.09.32s.81.24,1.22.38a5.1,5.1,0,0,1,1.14.58,2.9,2.9,0,0,1,.84.93A3,3,0,0,1,96.19,29a2.58,2.58,0,0,1-.6,1.73,3.73,3.73,0,0,1-1.5,1.09,4.72,4.72,0,0,1-1.84.37,7.18,7.18,0,0,1-2.35-.41A4,4,0,0,1,87.94,30.38Z"/><path class="cls-1" d="M108.44,26.7a5.59,5.59,0,0,1-.73,2.89,5.19,5.19,0,0,1-1.95,1.94,5.73,5.73,0,0,1-5.49,0,5.21,5.21,0,0,1-2-1.94,6.07,6.07,0,0,1,0-5.77,5.34,5.34,0,0,1,2-2,5.66,5.66,0,0,1,5.49,0,5.31,5.31,0,0,1,1.95,2A5.56,5.56,0,0,1,108.44,26.7Zm-2.39,0a3.63,3.63,0,0,0-.41-1.76,3.1,3.1,0,0,0-1.1-1.17,3,3,0,0,0-3.06,0,3.08,3.08,0,0,0-1.09,1.17,4,4,0,0,0,0,3.51,3.08,3.08,0,0,0,1.09,1.17,3,3,0,0,0,3.06,0,3.1,3.1,0,0,0,1.1-1.17A3.62,3.62,0,0,0,106.05,26.7Z"/><path class="cls-1" d="M31.48.14a1.16,1.16,0,0,1,.84.35,1.13,1.13,0,0,1,.37.87V12.89a1.1,1.1,0,0,1-.38.87,1.25,1.25,0,0,1-.87.35,1.19,1.19,0,0,1-.9-.35,1.18,1.18,0,0,1-.34-.87V1.36a1.15,1.15,0,0,1,.36-.87A1.23,1.23,0,0,1,31.48.14ZM31.42,6h8.9V8.24h-8.9ZM40.32.14a1.18,1.18,0,0,1,.9.35,1.22,1.22,0,0,1,.34.87V12.89a1.18,1.18,0,0,1-.35.87,1.29,1.29,0,0,1-.93.35,1.22,1.22,0,0,1-.85-.35,1.13,1.13,0,0,1-.37-.87V1.36a1.14,1.14,0,0,1,.38-.87A1.21,1.21,0,0,1,40.32.14Z"/><path class="cls-1" d="M52.27,3.43a1.15,1.15,0,0,1,.86.35,1.18,1.18,0,0,1,.34.87V9.72a4.63,4.63,0,0,1-1.18,3.35,4.43,4.43,0,0,1-3.39,1.24,4.4,4.4,0,0,1-3.38-1.24,4.67,4.67,0,0,1-1.17-3.35V4.65a1.18,1.18,0,0,1,.34-.87,1.16,1.16,0,0,1,.86-.35,1.18,1.18,0,0,1,.86.35,1.21,1.21,0,0,1,.33.87V9.72a2.58,2.58,0,0,0,.54,1.8,2.07,2.07,0,0,0,1.62.59,2.1,2.1,0,0,0,1.64-.59,2.58,2.58,0,0,0,.54-1.8V4.65a1.18,1.18,0,0,1,.34-.87A1.14,1.14,0,0,1,52.27,3.43Z"/><path class="cls-1" d="M60.2,3.23a4.38,4.38,0,0,1,1.53.26,4.24,4.24,0,0,1,1.21.66,4,4,0,0,1,.8.81,1.3,1.3,0,0,1,.29.69l-.52.26V4.45a1.18,1.18,0,0,1,.34-.87,1.24,1.24,0,0,1,1.72,0,1.22,1.22,0,0,1,.34.88v8.88a4.7,4.7,0,0,1-.75,2.79,4.28,4.28,0,0,1-2,1.51,7,7,0,0,1-2.61.47,6.51,6.51,0,0,1-1-.1,11,11,0,0,1-1.22-.24,6.65,6.65,0,0,1-.88-.26,1.72,1.72,0,0,1-.83-.65,1,1,0,0,1-.09-.82,1.27,1.27,0,0,1,.58-.79,1,1,0,0,1,.84-.05c.14,0,.35.12.66.24a10,10,0,0,0,1,.33,3.71,3.71,0,0,0,1,.15,3.41,3.41,0,0,0,2.21-.6,2,2,0,0,0,.72-1.66V11.91l.24.18a1.11,1.11,0,0,1-.27.63,3.66,3.66,0,0,1-.74.73,4.5,4.5,0,0,1-1.11.61,3.56,3.56,0,0,1-1.35.25,4.76,4.76,0,0,1-2.56-.71,4.92,4.92,0,0,1-1.79-2,6,6,0,0,1-.66-2.86,6.06,6.06,0,0,1,.66-2.88,5,5,0,0,1,1.77-2A4.61,4.61,0,0,1,60.2,3.23Zm.38,2.2A2.78,2.78,0,0,0,59,5.87a3,3,0,0,0-1.06,1.19,3.85,3.85,0,0,0-.38,1.72,3.79,3.79,0,0,0,.38,1.7A3,3,0,0,0,59,11.67a3.07,3.07,0,0,0,3.17,0,2.91,2.91,0,0,0,1.06-1.19,3.79,3.79,0,0,0,.38-1.7,3.85,3.85,0,0,0-.38-1.72,2.91,2.91,0,0,0-1.06-1.19A2.79,2.79,0,0,0,60.58,5.43Z"/><path class="cls-1" d="M78.36,8.78a5.56,5.56,0,0,1-.73,2.88,5.07,5.07,0,0,1-1.95,1.95,5.73,5.73,0,0,1-5.49,0,5.17,5.17,0,0,1-2-1.95,5.65,5.65,0,0,1-.73-2.88,5.65,5.65,0,0,1,.73-2.88,5.27,5.27,0,0,1,2-2,5.66,5.66,0,0,1,5.49,0,5.17,5.17,0,0,1,1.95,2A5.56,5.56,0,0,1,78.36,8.78ZM76,8.78A3.67,3.67,0,0,0,75.56,7a3.15,3.15,0,0,0-1.1-1.16,2.89,2.89,0,0,0-1.53-.42,2.83,2.83,0,0,0-1.52.42A3.07,3.07,0,0,0,70.31,7a3.56,3.56,0,0,0-.41,1.77,3.51,3.51,0,0,0,.41,1.75,2.93,2.93,0,0,0,1.1,1.16,2.83,2.83,0,0,0,1.52.42,2.89,2.89,0,0,0,1.53-.42,3,3,0,0,0,1.1-1.16A3.62,3.62,0,0,0,76,8.78Z"/><path class="cls-1" d="M22.2,32.09a2.5,2.5,0,0,1-2.5-2.5V7.42a2.42,2.42,0,1,0-4.83,0V11.8a2.5,2.5,0,0,1-5,0V7.42a7.42,7.42,0,1,1,14.83,0V29.59A2.5,2.5,0,0,1,22.2,32.09Z"/><path class="cls-1" d="M7.42,32.09A7.43,7.43,0,0,1,0,24.67V2.5a2.5,2.5,0,0,1,5,0V24.67a2.42,2.42,0,0,0,4.84,0V20.29a2.5,2.5,0,0,1,5,0v4.38A7.43,7.43,0,0,1,7.42,32.09Z"/></g></g></svg>