<svg xmlns="http://www.w3.org/2000/svg" viewBox="0 0 24.7 32.09"><defs><style>.cls-1{fill:#fff;}</style></defs><title>Asset 5</title><g id="Layer_2" data-name="Layer 2"><g id="Layer_1-2" data-name="Layer 1"><path class="cls-1" d="M22.2,32.09a2.5,2.5,0,0,1-2.5-2.5V7.42a2.42,2.42,0,1,0-4.83,0V11.8a2.5,2.5,0,0,1-5,0V7.42a7.42,7.42,0,1,1,14.83,0V29.59A2.5,2.5,0,0,1,22.2,32.09Z"/><path class="cls-1" d="M7.42,32.09A7.43,7.43,0,0,1,0,24.67V2.5a2.5,2.5,0,0,1,5,0V24.67a2.42,2.42,0,0,0,4.84,0V20.29a2.5,2.5,0,0,1,5,0v4.38A7.43,7.43,0,0,1,7.42,32.09Z"/></g></g></svg>